<svg width="175" height="27" viewBox="0 0 175 27" fill="none" xmlns="http://www.w3.org/2000/svg">
<g clip-path="url(#clip0_50_1274)">
<path d="M12.7137 18.2434H7.92458V12.0661H11.0367C11.6258 12.0661 12.1275 12.0514 12.7167 12.019C13.1075 12.0039 13.4897 11.8987 13.834 11.7114C14.1783 11.5241 14.4756 11.2597 14.7029 10.9384C14.9548 10.6031 15.1157 10.2073 15.1696 9.79008C15.2221 9.42497 15.2279 9.11287 15.1929 8.74188C15.1317 8.08148 14.8276 7.46821 14.3406 7.02293C13.8536 6.57766 13.2191 6.33269 12.5621 6.33631H7.92458V26.364H0V0H12.95C13.4663 0 13.9008 0.00883315 14.4171 0.038277C17.8558 0.223773 20.6879 2.15234 22.1433 5.29989C22.8869 6.85643 23.1714 8.59601 22.9629 10.3112C22.7871 12.1279 22.0403 13.8402 20.8318 15.1979C19.6233 16.5556 18.0164 17.4876 16.2458 17.8577C15.0878 18.1211 13.9037 18.2505 12.7167 18.2434" fill="rgb(0 65 192)"/>
<path d="M42.14 24.8889C42.035 23.3372 41.9766 22.024 41.9445 20.4664C41.9037 18.4201 41.8804 16.6976 41.8658 14.6513C41.8658 13.6036 41.7305 12.5603 41.4633 11.5479C41.303 10.8773 41.0046 10.2484 40.5875 9.70202C40.1704 9.15565 39.6439 8.7041 39.0425 8.37679C38.3278 7.9685 37.5543 7.67543 36.75 7.5082C34.1939 6.92836 31.5481 6.87528 28.9712 7.35215C28.2129 7.48465 27.58 7.67014 26.8654 7.97047C26.0721 8.28679 25.3608 8.78167 24.7856 9.41743C24.2104 10.0532 23.7865 10.8131 23.5462 11.6392C23.347 12.266 23.2862 12.9294 23.3683 13.5825C23.38 13.7061 23.412 13.8121 23.4675 13.927L29.747 14.083C29.7277 13.7004 29.7853 13.3178 29.9162 12.9583C30.0101 12.6806 30.1656 12.4284 30.3709 12.2207C30.5761 12.013 30.8256 11.8554 31.1004 11.7599C31.9045 11.4486 32.7914 11.4329 33.6058 11.7157C33.8756 11.8 34.1206 11.9503 34.319 12.1532C34.5175 12.3561 34.6632 12.6053 34.7433 12.8788C34.8483 13.2321 34.7958 13.5854 34.5829 13.8887C34.4078 14.1479 34.157 14.3455 33.8654 14.454C33.6787 14.5276 33.5154 14.5777 33.3258 14.6307C32.4997 14.8581 31.6625 15.0418 30.8175 15.1813C30.1116 15.299 29.5166 15.408 28.8166 15.5523C27.9156 15.7306 27.0263 15.9647 26.1537 16.253C25.3483 16.507 24.6104 16.9419 23.9954 17.525C23.1711 18.2641 22.6405 19.2799 22.502 20.384C22.3941 21.1525 22.4204 21.8209 22.5895 22.5776C22.7853 23.5202 23.2346 24.3901 23.888 25.0918C24.5415 25.7936 25.3738 26.3 26.2937 26.5554C28.3241 27.1829 30.5081 27.0714 32.4654 26.2404C33.4216 25.8648 34.2642 25.2437 34.9095 24.4384L34.4662 21.1996C34.1706 21.6762 33.7368 22.0494 33.2237 22.2684C32.7279 22.4892 32.2758 22.607 31.7362 22.6629C31.2841 22.7071 30.8933 22.6747 30.4558 22.5511C30.1161 22.4623 29.8092 22.2762 29.572 22.0152C29.3639 21.7959 29.2222 21.5211 29.1637 21.2231C29.1139 20.9961 29.1274 20.7596 29.2025 20.5397C29.2777 20.3199 29.4116 20.1254 29.5895 19.9777C29.8208 19.7741 30.088 19.6163 30.377 19.5125C31.0676 19.2546 31.7682 19.0247 32.477 18.8235C33.3783 18.5673 34.122 18.2905 34.9766 17.893C35.0583 18.582 35.0554 19.1709 34.9591 19.8569C34.892 20.3604 34.7375 20.7756 34.4662 21.1996L34.9095 24.4384C35.0466 24.8977 35.172 25.2805 35.3295 25.7339C35.417 25.9842 35.5337 26.1785 35.7087 26.3758H42.6212C42.335 25.9322 42.169 25.4205 42.14 24.8918" fill="rgb(0 65 192)"/>
<path d="M50.4097 9.52209C51.2755 8.7463 52.2518 8.10613 53.3059 7.62296C55.0263 6.78917 56.9951 6.64195 58.8184 7.21075C59.7995 7.48356 60.696 8.00321 61.4239 8.72106C62.1518 9.43891 62.6874 10.3315 62.9805 11.3152C63.2823 12.2495 63.432 13.2269 63.4239 14.2095V26.364H56.0155V15.4344C56.0155 15.0693 55.9689 14.7572 55.8639 14.4098C55.7772 14.108 55.6238 13.83 55.4151 13.5969C55.2064 13.3638 54.9479 13.1816 54.6593 13.0642C54.031 12.7911 53.3253 12.7601 52.6759 12.9772C52.0265 13.1943 51.4786 13.6443 51.1359 14.2419C50.8421 14.7327 50.6905 15.2968 50.6984 15.8702V26.364H43.5234V7.53168H50.2522L50.4097 9.52209Z" fill="rgb(0 65 192)"/>
<path d="M84.0228 24.8889C83.9178 23.3372 83.8594 22.024 83.8274 20.4664C83.7865 18.4201 83.7632 16.6976 83.7486 14.6513C83.7486 13.6036 83.6133 12.5603 83.3461 11.5479C83.1858 10.8773 82.8874 10.2484 82.4703 9.70202C82.0532 9.15565 81.5268 8.7041 80.9253 8.37679C80.2106 7.9685 79.4371 7.67543 78.6328 7.5082C76.0767 6.92836 73.4309 6.87528 70.854 7.35215C70.0957 7.48465 69.4628 7.67014 68.7482 7.97047C67.9549 8.28679 67.2436 8.78167 66.6684 9.41743C66.0933 10.0532 65.6694 10.8131 65.429 11.6392C65.2298 12.266 65.169 12.9294 65.2511 13.5825C65.2628 13.7061 65.2949 13.8121 65.3503 13.927L71.6299 14.083C71.6106 13.7004 71.6681 13.3178 71.799 12.9583C71.8929 12.6806 72.0485 12.4284 72.2537 12.2207C72.4589 12.013 72.7084 11.8554 72.9832 11.7599C73.7873 11.4486 74.6742 11.4329 75.4886 11.7157C75.7584 11.8 76.0034 11.9503 76.2019 12.1532C76.4003 12.3561 76.546 12.6053 76.6261 12.8788C76.7311 13.2321 76.6786 13.5854 76.4657 13.8887C76.2906 14.1479 76.0398 14.3455 75.7482 14.454C75.5615 14.5276 75.3982 14.5777 75.2086 14.6307C74.3825 14.8581 73.5453 15.0418 72.7003 15.1813C71.9944 15.299 71.3994 15.408 70.6994 15.5523C69.7984 15.7306 68.9091 15.9647 68.0365 16.253C67.2311 16.507 66.4932 16.9419 65.8782 17.525C65.054 18.2641 64.5233 19.2799 64.3849 20.384C64.2769 21.1525 64.3032 21.8209 64.4724 22.5776C64.6681 23.5202 65.1174 24.3901 65.7708 25.0918C66.4243 25.7936 67.2567 26.3 68.1765 26.5554C70.2069 27.1829 72.3909 27.0714 74.3482 26.2404C75.3044 25.8648 76.147 25.2437 76.7924 24.4384L76.349 21.1996C76.0534 21.6762 75.6196 22.0494 75.1065 22.2684C74.6107 22.4892 74.1586 22.607 73.619 22.6629C73.1669 22.7071 72.7761 22.6747 72.3386 22.5511C71.999 22.4623 71.692 22.2762 71.4549 22.0152C71.2467 21.7959 71.1051 21.5211 71.0465 21.2231C70.9968 20.9961 71.0102 20.7596 71.0854 20.5397C71.1605 20.3199 71.2945 20.1254 71.4724 19.9777C71.7036 19.7741 71.9708 19.6163 72.2599 19.5125C72.9505 19.2546 73.651 19.0247 74.3599 18.8235C75.2611 18.5673 76.0049 18.2905 76.8594 17.893C76.9411 18.582 76.9382 19.1709 76.8419 19.8569C76.7749 20.3604 76.6203 20.7756 76.349 21.1996L76.7924 24.4384C76.9294 24.8977 77.0549 25.2805 77.2124 25.7339C77.2999 25.9842 77.4165 26.1785 77.5915 26.3758H84.504C84.2178 25.9322 84.0519 25.4205 84.0228 24.8918" fill="rgb(0 65 192)"/>
<path d="M94.3771 19.4418C94.9109 19.5331 95.3571 19.6479 95.8704 19.8187C96.0762 19.8837 96.2608 20.0037 96.4045 20.1659C96.5483 20.3281 96.6459 20.5266 96.6871 20.7403C96.74 20.9706 96.7332 21.2109 96.6673 21.4379C96.6014 21.6648 96.4786 21.8707 96.3109 22.0358C95.9798 22.3824 95.5435 22.6073 95.0713 22.6747C94.4121 22.7807 93.8288 22.7277 93.2046 22.4981C92.9138 22.3963 92.6439 22.2416 92.4084 22.0417C92.0987 21.7848 91.8722 21.4402 91.7579 21.0524C91.6563 20.7279 91.609 20.3885 91.6179 20.0483H84.7871V20.4488C84.7871 21.0965 84.8863 21.6471 85.1109 22.2566C85.455 23.1694 85.9246 23.876 86.6334 24.5415C87.5071 25.382 88.5747 25.9893 89.7396 26.3081C92.1382 27.0273 94.6671 27.1884 97.1363 26.7792C98.2954 26.6106 99.4171 26.2421 100.453 25.6898C100.912 25.4511 101.343 25.1596 101.736 24.8212C102.632 24.0843 103.283 23.0892 103.604 21.9686C103.925 20.8481 103.9 19.6554 103.533 18.5496C103.277 17.7131 102.789 16.9682 102.127 16.4032C101.237 15.6083 100.18 15.0275 99.035 14.7043L98.2884 14.4893C96.9015 14.0949 95.4908 13.792 94.065 13.5825C93.6625 13.5236 93.3242 13.4588 92.9275 13.3646C92.7538 13.3232 92.5847 13.264 92.4229 13.1879C92.323 13.1427 92.2328 13.078 92.1576 12.9976C92.0824 12.9172 92.0236 12.8226 91.9846 12.7193C91.9456 12.6159 91.9271 12.5058 91.9303 12.3953C91.9334 12.2847 91.9581 12.1759 92.0029 12.0749L92.035 12.0102C92.1397 11.8155 92.2823 11.6442 92.4542 11.5066C92.6261 11.3689 92.8238 11.2678 93.0354 11.2093C93.8171 10.9826 94.5346 11.0032 95.3017 11.2623C95.655 11.3801 95.9602 11.612 96.17 11.9222C96.3798 12.2324 96.4826 12.6038 96.4625 12.9789H103.048C103.048 12.2031 102.912 11.4335 102.646 10.7058C102.389 9.95806 101.921 9.30285 101.298 8.8214C100.769 8.39169 100.175 8.04979 99.5396 7.80853C98.9239 7.56374 98.2846 7.38416 97.6321 7.27265C96.0861 6.99345 94.5123 6.90447 92.945 7.00766C92 7.06066 91.2038 7.17843 90.2792 7.39632C89.0367 7.69076 88.0334 8.17658 87.03 8.97156C86.2052 9.60702 85.5884 10.4779 85.2596 11.4713C84.8611 12.6712 84.9046 13.9759 85.3821 15.1459C85.6309 15.8067 86.0156 16.4069 86.5108 16.9067C87.006 17.4066 87.6004 17.795 88.255 18.0462C88.9463 18.3229 89.55 18.5055 90.2792 18.6556C91.7171 18.956 92.9334 19.1886 94.38 19.4388M116.754 7.17254C116.016 7.05477 115.386 7.00471 114.639 7.00471C113.893 7.00471 113.265 7.05477 112.525 7.17254C110.469 7.4686 108.562 8.42335 107.085 9.8961C105.453 11.4303 104.454 13.5285 104.285 15.7731C104.151 17.1347 104.274 18.5097 104.65 19.8246C105.233 21.9504 106.335 23.5934 108.071 24.9331C109.15 25.7887 110.411 26.3794 111.755 26.6585C112.702 26.873 113.671 26.9777 114.642 26.9706C115.663 26.9706 116.526 26.8823 117.527 26.6585C118.87 26.3793 120.132 25.7886 121.21 24.9331L117.203 20.5224C117.052 20.8622 116.835 21.1685 116.567 21.4239C116.298 21.6793 115.982 21.8787 115.637 22.0108C115.292 22.1429 114.924 22.205 114.555 22.1936C114.187 22.1823 113.824 22.0976 113.487 21.9445C112.855 21.6685 112.352 21.16 112.078 20.5224C111.816 19.9457 111.639 19.3338 111.55 18.7057C111.352 17.3807 111.375 16.2324 111.629 14.9192C111.76 14.2391 111.988 13.6826 112.364 13.0996C112.612 12.7193 112.95 12.4072 113.347 12.1913C113.744 11.9753 114.188 11.8623 114.639 11.8623C115.09 11.8623 115.534 11.9753 115.931 12.1913C116.328 12.4072 116.666 12.7193 116.914 13.0996C117.28 13.649 117.53 14.2683 117.649 14.9192C117.903 16.2354 117.929 17.3837 117.731 18.7057C117.632 19.3682 117.474 19.9129 117.203 20.5224L121.21 24.9331C122.892 23.6722 124.098 21.8703 124.629 19.8246C125.011 18.4407 125.122 17.2041 124.993 15.7731C124.825 13.5283 123.826 11.43 122.193 9.8961C120.716 8.42283 118.809 7.468 116.754 7.17254Z" fill="rgb(0 65 192)"/>
<path d="M132.918 9.52209C133.783 8.7463 134.76 8.10613 135.814 7.62296C137.534 6.78917 139.503 6.64195 141.326 7.21075C142.307 7.48356 143.204 8.00321 143.932 8.72106C144.66 9.43891 145.195 10.3315 145.488 11.3152C145.79 12.2495 145.94 13.2269 145.932 14.2095V26.364H138.523V15.4344C138.523 15.0693 138.477 14.7572 138.372 14.4098C138.285 14.108 138.132 13.83 137.923 13.5969C137.714 13.3638 137.456 13.1816 137.167 13.0642C136.539 12.7911 135.833 12.7601 135.184 12.9772C134.534 13.1943 133.986 13.6443 133.644 14.2419C133.35 14.7327 133.198 15.2968 133.206 15.8702V26.364H126.031V7.53168H132.76L132.918 9.52209Z" fill="rgb(0 65 192)"/>
<path d="M147.367 0V4.97601H154.341V0H147.367ZM147.367 7.53468V26.367H154.341V7.53468H147.367ZM173.075 23.9231C171.746 25.3744 169.988 26.3543 168.064 26.7173C166.711 26.9941 165.526 27.053 164.153 26.9087C162.409 26.7513 160.746 26.0956 159.358 25.0184C158.207 24.1708 157.249 23.0846 156.549 21.8326C155.989 20.8742 155.615 19.817 155.446 18.7174C155.184 17.1157 155.254 15.7083 155.671 14.1419C156.625 10.5792 159.276 8.05583 162.855 7.30502C164.896 6.87808 166.711 6.92225 168.732 7.44929C170.108 7.79087 171.372 8.49028 172.398 9.47797C173.055 10.0825 173.598 10.8017 174.002 11.6009C174.504 12.5384 174.733 13.5998 174.664 14.663H168.286C168.226 14.2512 168.086 13.8553 167.874 13.4985C167.661 13.1417 167.381 12.8309 167.049 12.5843C166.626 12.2499 166.111 12.0562 165.574 12.0298C165.038 12.0035 164.506 12.1458 164.053 12.4371C163.421 12.8204 162.953 13.4283 162.741 14.1419C162.195 15.8171 162.167 17.6203 162.659 19.3122C162.848 20.0289 163.236 20.6765 163.776 21.179C164.076 21.4764 164.44 21.6981 164.841 21.8261C165.241 21.954 165.666 21.9845 166.081 21.9151C166.603 21.8472 167.083 21.5872 167.428 21.1848C167.798 20.781 168.041 20.2761 168.128 19.7333C168.198 19.3358 168.236 18.9972 168.259 18.5938H174.982C175.062 19.5683 174.933 20.5486 174.604 21.4682C174.274 22.3878 173.753 23.2251 173.075 23.9231Z" fill="rgb(0 65 192)"/>
</g>
<defs>
<clipPath id="clip0_50_1274">
<rect width="175" height="27" fill="white"/>
</clipPath>
</defs>
</svg>
