<?xml version="1.0" encoding="UTF-8"?>
<svg xmlns="http://www.w3.org/2000/svg" xmlns:xlink="http://www.w3.org/1999/xlink" id="Layer_2" data-name="Layer 2" viewBox="0 0 2782.81 580.63">
  <defs>
    <style>
      .cls-1 {
        fill: url(#linear-gradient);
      }

      .cls-1, .cls-2 {
        stroke-width: 0px;
      }

      .cls-2 {
        fill: #5c5c5c;
      }
    </style>
    <linearGradient id="linear-gradient" x1="277.6" y1="0" x2="277.6" y2="361.39" gradientTransform="translate(519.13) rotate(-180) scale(1 -1)" gradientUnits="userSpaceOnUse">
      <stop offset="0" stop-color="#37b7fd"></stop>
      <stop offset="1" stop-color="#05055e"></stop>
    </linearGradient>
  </defs>
  <g id="Layer_1-2" data-name="Layer 1">
    <g>
      <path class="cls-2" d="M555.85,295.26l22.59-50.12c24.24,17.67,60.39,29.99,94.9,29.99,39.44,0,55.46-13.15,55.46-30.81,0-53.82-167.2-16.84-167.2-123.66,0-48.89,39.44-89.56,121.19-89.56,36.15,0,73.13,8.63,99.83,25.47l-20.54,50.53c-26.7-15.2-54.23-22.59-79.7-22.59-39.44,0-54.64,14.79-54.64,32.87,0,52.99,167.2,16.43,167.2,122.01,0,48.06-39.85,89.15-122.01,89.15-45.6,0-91.61-13.56-117.08-33.28Z"></path>
      <path class="cls-2" d="M1051.28,231.17h-167.2c6.16,27.53,29.58,44.37,63.27,44.37,23.42,0,40.26-6.98,55.46-21.36l34.1,36.97c-20.54,23.42-51.35,35.74-91.2,35.74-76.41,0-126.12-48.07-126.12-113.8s50.53-113.8,117.9-113.8,115.03,43.55,115.03,114.62c0,4.93-.82,11.91-1.23,17.25ZM883.25,193.79h108.87c-4.52-27.93-25.47-46.01-54.23-46.01s-50.12,17.67-54.64,46.01Z"></path>
      <path class="cls-2" d="M1321.18,197.07v126.53h-64.09v-116.67c0-35.74-16.43-52.17-44.78-52.17-30.81,0-53,18.9-53,59.57v109.28h-64.09V102.59h61.21v25.88c17.26-18.9,43.14-29.17,73.13-29.17,52.17,0,91.61,30.4,91.61,97.77Z"></path>
      <path class="cls-2" d="M1606.69,18.78v304.82h-61.21v-25.47c-16.02,19.31-39.44,28.76-69.02,28.76-62.44,0-110.51-44.37-110.51-113.8s48.07-113.8,110.51-113.8c27.11,0,50.12,8.63,66.14,26.7V18.78h64.09ZM1543.83,213.1c0-38.21-24.65-61.21-56.28-61.21s-56.69,23.01-56.69,61.21,24.65,61.21,56.69,61.21,56.28-23.01,56.28-61.21Z"></path>
      <path class="cls-2" d="M1655.97,179.82c0-85.04,64.91-147.07,152.41-147.07,44.37,0,82.98,15.2,109.28,44.78l-26.7,25.88c-22.18-23.42-49.3-34.1-80.93-34.1-64.91,0-112.97,46.83-112.97,110.51s48.07,110.51,112.97,110.51c31.63,0,58.75-11.09,80.93-34.51l26.7,25.88c-26.29,29.58-64.91,45.19-109.69,45.19-87.09,0-152-62.03-152-147.07Z"></path>
      <path class="cls-2" d="M1970.65,18.78h39.44v304.82h-39.44V18.78Z"></path>
      <path class="cls-2" d="M2281.22,227.89h-176.65c4.93,38.21,35.74,63.67,78.87,63.67,25.47,0,46.83-8.63,62.86-26.29l21.77,25.47c-19.72,23.01-49.71,35.33-85.86,35.33-70.25,0-117.08-46.42-117.08-111.33s46.42-110.92,109.28-110.92,107.63,45.19,107.63,112.15c0,3.29-.41,8.22-.82,11.92ZM2104.57,199.54h139.68c-4.11-36.56-31.63-62.44-69.84-62.44s-65.73,25.47-69.84,62.44Z"></path>
      <path class="cls-2" d="M2503.05,192.15v131.46h-37.39v-28.76c-13.15,19.72-37.38,31.22-71.48,31.22-49.3,0-80.52-26.29-80.52-64.09,0-34.92,22.59-63.68,87.5-63.68h62.44v-7.81c0-33.28-19.31-52.58-58.33-52.58-25.88,0-52.18,9.04-69.02,23.42l-16.43-29.58c22.6-18.08,55.05-27.94,89.97-27.94,59.57,0,93.26,28.76,93.26,88.33ZM2463.62,257.05v-30.4h-60.8c-39.02,0-50.12,15.2-50.12,33.69,0,21.77,18.07,35.33,48.06,35.33s52.99-13.56,62.86-38.62Z"></path>
      <path class="cls-2" d="M2782.81,198.31v125.3h-39.44v-120.78c0-42.73-21.36-63.68-58.75-63.68-41.9,0-69.02,25.06-69.02,72.3v112.15h-39.44V105.87h37.79v32.87c16.02-22.18,43.96-34.92,78.47-34.92,53,0,90.38,30.4,90.38,94.49Z"></path>
    </g>
    <path class="cls-1" d="M114.57,161.39c8.62-15.05,23.42-25.04,40.6-27.4,17.19-2.35,34.14,3.27,46.49,15.43l68.69,67.6c4.87,4.79,11.54,7.13,18.34,6.38,6.79-.74,12.82-4.45,16.54-10.17l117.28-180.37H113.23c-33.5,0-60.75,27.25-60.75,60.75v115c0,10.69-8.7,19.39-19.39,19.39h-13.46V93.6C19.63,41.99,61.62,0,113.23,0h369.83s-150.28,231.13-150.28,231.13c-9.12,14.03-23.89,23.11-40.53,24.92-16.65,1.82-33.02-3.89-44.94-15.62l-68.69-67.6c-5.04-4.97-11.96-7.25-18.98-6.3-7.01.96-13.05,5.04-16.57,11.18l-86.4,150.82h318.94c33.5,0,60.75-27.25,60.75-60.75v-126.03c0-10.69,8.7-19.39,19.39-19.39h13.46v145.42c0,51.61-41.99,93.6-93.6,93.6H0s114.57-200,114.57-200Z"></path>
    <g>
      <path class="cls-2" d="M555.84,555.03l40.58-89.6h12.67l40.7,89.6h-13.44l-36.22-82.43h5.12l-36.22,82.43h-13.18ZM573.12,532.63l3.46-10.24h50.43l3.71,10.24h-57.6Z"></path>
      <path class="cls-2" d="M703.68,555.03v-89.6h34.94c7.85,0,14.55,1.24,20.1,3.71,5.55,2.48,9.81,6.06,12.8,10.75,2.99,4.69,4.48,10.28,4.48,16.77s-1.49,12.05-4.48,16.7c-2.99,4.65-7.25,8.21-12.8,10.69-5.55,2.48-12.25,3.71-20.1,3.71h-27.9l5.76-5.89v33.15h-12.8ZM716.48,523.16l-5.76-6.27h27.52c8.19,0,14.4-1.77,18.62-5.31,4.22-3.54,6.34-8.51,6.34-14.91s-2.11-11.35-6.34-14.85c-4.22-3.5-10.43-5.25-18.62-5.25h-27.52l5.76-6.4v52.99ZM763.59,555.03l-22.78-32.51h13.7l23.04,32.51h-13.95Z"></path>
      <path class="cls-2" d="M827.07,555.8c-6.83,0-12.89-1.49-18.18-4.48-5.29-2.99-9.47-7.1-12.54-12.35-3.07-5.25-4.61-11.2-4.61-17.86s1.54-12.71,4.61-17.92c3.07-5.2,7.25-9.28,12.54-12.22,5.29-2.94,11.35-4.42,18.18-4.42s12.78,1.47,18.11,4.42c5.33,2.94,9.51,7,12.54,12.16,3.03,5.16,4.54,11.16,4.54,17.98s-1.52,12.72-4.54,17.92c-3.03,5.21-7.21,9.3-12.54,12.29-5.33,2.99-11.37,4.48-18.11,4.48ZM827.07,545.04c4.35,0,8.26-.98,11.71-2.94,3.46-1.96,6.16-4.76,8.13-8.38,1.96-3.63,2.94-7.83,2.94-12.61s-.98-9.07-2.94-12.61c-1.96-3.54-4.67-6.29-8.13-8.26-3.46-1.96-7.36-2.94-11.71-2.94s-8.24.98-11.65,2.94c-3.41,1.96-6.14,4.72-8.19,8.26-2.05,3.54-3.07,7.74-3.07,12.61s1.02,8.98,3.07,12.61c2.05,3.63,4.78,6.42,8.19,8.38,3.41,1.96,7.3,2.94,11.65,2.94Z"></path>
      <path class="cls-2" d="M910.91,555.8c-5.8,0-10.9-1.07-15.3-3.2-4.4-2.13-7.81-5.4-10.24-9.79-2.43-4.39-3.65-9.92-3.65-16.58v-39.04h12.29v37.63c0,6.66,1.6,11.65,4.8,14.98,3.2,3.33,7.7,4.99,13.5,4.99,4.27,0,7.98-.87,11.14-2.62,3.16-1.75,5.59-4.31,7.3-7.68,1.71-3.37,2.56-7.44,2.56-12.22v-35.07h12.29v67.84h-11.65v-18.3l1.92,4.86c-2.22,4.52-5.55,8.02-9.98,10.5-4.44,2.48-9.43,3.71-14.98,3.71Z"></path>
      <path class="cls-2" d="M962.37,497.3v-10.11h43.26v10.11h-43.26ZM995.39,555.8c-6.83,0-12.12-1.83-15.87-5.5-3.76-3.67-5.63-8.92-5.63-15.74v-62.21h12.29v61.7c0,3.67.92,6.49,2.75,8.45,1.83,1.96,4.46,2.94,7.87,2.94,3.84,0,7.04-1.07,9.6-3.2l3.84,8.83c-1.88,1.62-4.12,2.82-6.72,3.58-2.6.77-5.31,1.15-8.13,1.15Z"></path>
      <path class="cls-2" d="M1056.06,555.8c-7.25,0-13.63-1.49-19.14-4.48-5.5-2.99-9.77-7.08-12.8-12.29-3.03-5.2-4.54-11.18-4.54-17.92s1.47-12.71,4.42-17.92c2.94-5.2,7-9.28,12.16-12.22,5.16-2.94,10.99-4.42,17.47-4.42s12.37,1.45,17.41,4.35c5.03,2.9,8.98,6.98,11.84,12.22,2.86,5.25,4.29,11.37,4.29,18.37,0,.51-.02,1.11-.06,1.79-.04.68-.11,1.32-.19,1.92h-57.73v-8.83h51.33l-4.99,3.07c.08-4.35-.81-8.23-2.69-11.65-1.88-3.41-4.46-6.08-7.74-8-3.29-1.92-7.1-2.88-11.46-2.88s-8.06.96-11.39,2.88c-3.33,1.92-5.93,4.61-7.81,8.06-1.88,3.46-2.82,7.4-2.82,11.84v2.05c0,4.52,1.04,8.56,3.14,12.1,2.09,3.54,5.01,6.29,8.77,8.26,3.75,1.96,8.06,2.94,12.93,2.94,4.01,0,7.66-.68,10.94-2.05,3.28-1.36,6.16-3.41,8.64-6.14l6.78,7.94c-3.07,3.58-6.89,6.32-11.46,8.19-4.57,1.88-9.66,2.82-15.3,2.82Z"></path>
      <path class="cls-2" d="M1146.56,555.03v-89.6h10.5l40.19,67.71h-5.63l39.68-67.71h10.5l.13,89.6h-12.29l-.13-70.27h2.94l-35.33,59.39h-5.89l-35.58-59.39h3.2v70.27h-12.29Z"></path>
      <path class="cls-2" d="M1299.13,555.8c-6.83,0-12.89-1.49-18.18-4.48-5.29-2.99-9.47-7.1-12.54-12.35-3.07-5.25-4.61-11.2-4.61-17.86s1.54-12.71,4.61-17.92c3.07-5.2,7.25-9.28,12.54-12.22,5.29-2.94,11.35-4.42,18.18-4.42s12.78,1.47,18.11,4.42c5.33,2.94,9.51,7,12.54,12.16,3.03,5.16,4.54,11.16,4.54,17.98s-1.52,12.72-4.54,17.92c-3.03,5.21-7.21,9.3-12.54,12.29-5.33,2.99-11.37,4.48-18.11,4.48ZM1299.13,545.04c4.35,0,8.26-.98,11.71-2.94,3.46-1.96,6.16-4.76,8.13-8.38,1.96-3.63,2.94-7.83,2.94-12.61s-.98-9.07-2.94-12.61c-1.96-3.54-4.67-6.29-8.13-8.26-3.46-1.96-7.36-2.94-11.71-2.94s-8.24.98-11.65,2.94c-3.41,1.96-6.14,4.72-8.19,8.26-2.05,3.54-3.07,7.74-3.07,12.61s1.02,8.98,3.07,12.61c2.05,3.63,4.78,6.42,8.19,8.38,3.41,1.96,7.3,2.94,11.65,2.94Z"></path>
      <path class="cls-2" d="M1354.43,555.03v-94.98h12.29v45.18l-1.28,15.74.77,15.74v18.3h-11.78ZM1390.4,555.8c-5.8,0-11.03-1.3-15.68-3.9-4.65-2.6-8.32-6.46-11.01-11.58s-4.03-11.52-4.03-19.2,1.39-14.08,4.16-19.2c2.77-5.12,6.48-8.96,11.14-11.52,4.65-2.56,9.79-3.84,15.42-3.84,6.66,0,12.54,1.45,17.66,4.35,5.12,2.9,9.17,6.93,12.16,12.1,2.99,5.16,4.48,11.2,4.48,18.11s-1.49,12.97-4.48,18.18c-2.99,5.21-7.04,9.26-12.16,12.16-5.12,2.9-11.01,4.35-17.66,4.35ZM1389.37,545.04c4.35,0,8.26-.98,11.71-2.94,3.46-1.96,6.19-4.76,8.19-8.38,2-3.63,3.01-7.83,3.01-12.61s-1-9.07-3.01-12.61c-2.01-3.54-4.74-6.29-8.19-8.26-3.46-1.96-7.36-2.94-11.71-2.94s-8.13.98-11.58,2.94c-3.46,1.96-6.19,4.72-8.19,8.26-2.01,3.54-3.01,7.74-3.01,12.61s1,8.98,3.01,12.61c2,3.63,4.74,6.42,8.19,8.38,3.46,1.96,7.32,2.94,11.58,2.94Z"></path>
      <path class="cls-2" d="M1450.94,474.13c-2.39,0-4.37-.77-5.95-2.3-1.58-1.54-2.37-3.41-2.37-5.63s.79-4.22,2.37-5.76c1.58-1.54,3.56-2.3,5.95-2.3s4.37.75,5.95,2.24c1.58,1.49,2.37,3.35,2.37,5.57s-.77,4.25-2.3,5.82c-1.54,1.58-3.54,2.37-6.02,2.37ZM1444.79,555.03v-67.84h12.29v67.84h-12.29Z"></path>
      <path class="cls-2" d="M1483.58,555.03v-94.98h12.29v94.98h-12.29Z"></path>
      <path class="cls-2" d="M1552.57,555.8c-7.25,0-13.63-1.49-19.14-4.48-5.5-2.99-9.77-7.08-12.8-12.29-3.03-5.2-4.54-11.18-4.54-17.92s1.47-12.71,4.42-17.92c2.94-5.2,7-9.28,12.16-12.22,5.16-2.94,10.99-4.42,17.47-4.42s12.37,1.45,17.41,4.35c5.03,2.9,8.98,6.98,11.84,12.22,2.86,5.25,4.29,11.37,4.29,18.37,0,.51-.02,1.11-.06,1.79-.04.68-.11,1.32-.19,1.92h-57.73v-8.83h51.33l-4.99,3.07c.08-4.35-.81-8.23-2.69-11.65-1.88-3.41-4.46-6.08-7.74-8-3.29-1.92-7.1-2.88-11.46-2.88s-8.06.96-11.39,2.88c-3.33,1.92-5.93,4.61-7.81,8.06-1.88,3.46-2.82,7.4-2.82,11.84v2.05c0,4.52,1.04,8.56,3.14,12.1,2.09,3.54,5.01,6.29,8.77,8.26,3.75,1.96,8.06,2.94,12.93,2.94,4.01,0,7.66-.68,10.94-2.05,3.28-1.36,6.16-3.41,8.64-6.14l6.78,7.94c-3.07,3.58-6.89,6.32-11.46,8.19-4.57,1.88-9.66,2.82-15.3,2.82Z"></path>
      <path class="cls-2" d="M1683.13,556.05c-6.83,0-13.12-1.13-18.88-3.39-5.76-2.26-10.75-5.46-14.98-9.6-4.22-4.14-7.53-8.98-9.92-14.53-2.39-5.55-3.58-11.65-3.58-18.3s1.19-12.76,3.58-18.3c2.39-5.55,5.72-10.39,9.98-14.53,4.27-4.14,9.28-7.34,15.04-9.6,5.76-2.26,12.05-3.39,18.88-3.39s13.29,1.17,19.14,3.52c5.84,2.35,10.82,5.82,14.91,10.43l-8.32,8.06c-3.41-3.58-7.25-6.25-11.52-8-4.27-1.75-8.83-2.62-13.7-2.62s-9.71.85-14.02,2.56c-4.31,1.71-8.04,4.1-11.2,7.17-3.16,3.07-5.61,6.72-7.36,10.94-1.75,4.22-2.62,8.81-2.62,13.76s.87,9.54,2.62,13.76c1.75,4.22,4.2,7.87,7.36,10.94,3.16,3.07,6.89,5.46,11.2,7.17,4.31,1.71,8.98,2.56,14.02,2.56s9.43-.87,13.7-2.62c4.27-1.75,8.11-4.46,11.52-8.13l8.32,8.06c-4.1,4.61-9.07,8.11-14.91,10.5-5.85,2.39-12.27,3.58-19.26,3.58Z"></path>
      <path class="cls-2" d="M1763.13,555.8c-6.83,0-12.89-1.49-18.18-4.48-5.29-2.99-9.47-7.1-12.54-12.35-3.07-5.25-4.61-11.2-4.61-17.86s1.54-12.71,4.61-17.92c3.07-5.2,7.25-9.28,12.54-12.22,5.29-2.94,11.35-4.42,18.18-4.42s12.78,1.47,18.11,4.42c5.33,2.94,9.51,7,12.54,12.16,3.03,5.16,4.54,11.16,4.54,17.98s-1.52,12.72-4.54,17.92c-3.03,5.21-7.21,9.3-12.54,12.29-5.33,2.99-11.37,4.48-18.11,4.48ZM1763.13,545.04c4.35,0,8.26-.98,11.71-2.94,3.46-1.96,6.16-4.76,8.13-8.38,1.96-3.63,2.94-7.83,2.94-12.61s-.98-9.07-2.94-12.61c-1.96-3.54-4.67-6.29-8.13-8.26-3.46-1.96-7.36-2.94-11.71-2.94s-8.24.98-11.65,2.94c-3.41,1.96-6.14,4.72-8.19,8.26-2.05,3.54-3.07,7.74-3.07,12.61s1.02,8.98,3.07,12.61c2.05,3.63,4.78,6.42,8.19,8.38,3.41,1.96,7.3,2.94,11.65,2.94Z"></path>
      <path class="cls-2" d="M1903.29,486.55c5.46,0,10.28,1.07,14.46,3.2,4.18,2.13,7.44,5.38,9.79,9.73,2.35,4.35,3.52,9.86,3.52,16.51v39.04h-12.29v-37.63c0-6.57-1.54-11.52-4.61-14.85-3.07-3.33-7.38-4.99-12.93-4.99-4.1,0-7.68.85-10.75,2.56-3.07,1.71-5.44,4.22-7.1,7.55s-2.5,7.47-2.5,12.42v34.94h-12.29v-37.63c0-6.57-1.52-11.52-4.54-14.85-3.03-3.33-7.36-4.99-12.99-4.99-4.01,0-7.55.85-10.62,2.56-3.07,1.71-5.46,4.22-7.17,7.55-1.71,3.33-2.56,7.47-2.56,12.42v34.94h-12.29v-67.84h11.78v18.05l-1.92-4.61c2.13-4.44,5.42-7.89,9.86-10.37,4.44-2.47,9.6-3.71,15.49-3.71,6.48,0,12.07,1.6,16.77,4.8,4.69,3.2,7.76,8.04,9.22,14.53l-4.99-2.05c2.05-5.2,5.63-9.39,10.75-12.54,5.12-3.16,11.09-4.74,17.92-4.74Z"></path>
      <path class="cls-2" d="M1956.79,579.86v-92.67h11.78v18.3l-.77,15.74,1.28,15.74v42.88h-12.29ZM1992.76,555.8c-5.63,0-10.77-1.3-15.42-3.9-4.65-2.6-8.36-6.46-11.14-11.58-2.77-5.12-4.16-11.52-4.16-19.2s1.34-14.08,4.03-19.2,6.36-8.96,11.01-11.52c4.65-2.56,9.88-3.84,15.68-3.84,6.66,0,12.54,1.45,17.66,4.35,5.12,2.9,9.17,6.93,12.16,12.1,2.99,5.16,4.48,11.2,4.48,18.11s-1.49,12.97-4.48,18.18c-2.99,5.21-7.04,9.26-12.16,12.16-5.12,2.9-11.01,4.35-17.66,4.35ZM1991.73,545.04c4.35,0,8.26-.98,11.71-2.94,3.46-1.96,6.19-4.76,8.19-8.38,2-3.63,3.01-7.83,3.01-12.61s-1-9.07-3.01-12.61c-2.01-3.54-4.74-6.29-8.19-8.26-3.46-1.96-7.36-2.94-11.71-2.94s-8.13.98-11.58,2.94c-3.46,1.96-6.19,4.72-8.19,8.26-2.01,3.54-3.01,7.74-3.01,12.61s1,8.98,3.01,12.61c2,3.63,4.74,6.42,8.19,8.38,3.46,1.96,7.32,2.94,11.58,2.94Z"></path>
      <path class="cls-2" d="M2066.36,555.8c-5.04,0-9.45-.85-13.25-2.56-3.8-1.71-6.72-4.07-8.77-7.1-2.05-3.03-3.07-6.46-3.07-10.3s.87-7,2.62-9.98c1.75-2.99,4.61-5.38,8.58-7.17,3.97-1.79,9.32-2.69,16.06-2.69h21.5v8.83h-20.99c-6.14,0-10.28,1.02-12.42,3.07-2.13,2.05-3.2,4.52-3.2,7.42,0,3.33,1.32,6,3.97,8,2.64,2.01,6.31,3.01,11.01,3.01s8.64-1.02,12.1-3.07c3.46-2.05,5.95-5.03,7.49-8.96l2.43,8.45c-1.62,4.01-4.48,7.19-8.58,9.54-4.1,2.35-9.26,3.52-15.49,3.52ZM2088.63,555.03v-14.34l-.64-2.69v-24.45c0-5.2-1.52-9.24-4.54-12.1-3.03-2.86-7.57-4.29-13.63-4.29-4.01,0-7.94.66-11.78,1.98-3.84,1.32-7.08,3.09-9.73,5.31l-5.12-9.22c3.5-2.82,7.7-4.97,12.61-6.46,4.91-1.49,10.05-2.24,15.42-2.24,9.3,0,16.47,2.26,21.5,6.78,5.03,4.52,7.55,11.44,7.55,20.74v40.96h-11.65Z"></path>
      <path class="cls-2" d="M2162.36,486.55c5.55,0,10.43,1.07,14.66,3.2,4.22,2.13,7.53,5.38,9.92,9.73,2.39,4.35,3.58,9.86,3.58,16.51v39.04h-12.29v-37.63c0-6.57-1.6-11.52-4.8-14.85-3.2-3.33-7.7-4.99-13.5-4.99-4.35,0-8.15.85-11.39,2.56-3.24,1.71-5.74,4.22-7.49,7.55-1.75,3.33-2.62,7.47-2.62,12.42v34.94h-12.29v-67.84h11.78v18.3l-1.92-4.86c2.22-4.44,5.63-7.89,10.24-10.37,4.61-2.47,9.98-3.71,16.13-3.71Z"></path>
      <path class="cls-2" d="M2218.04,580.63c-3.24,0-6.4-.53-9.47-1.6-3.07-1.07-5.72-2.62-7.94-4.67l5.25-9.22c1.71,1.62,3.58,2.86,5.63,3.71,2.05.85,4.22,1.28,6.53,1.28,2.99,0,5.46-.77,7.42-2.3,1.96-1.54,3.8-4.27,5.5-8.19l4.22-9.34,1.28-1.54,26.62-61.57h12.03l-32.9,74.62c-1.96,4.78-4.16,8.53-6.59,11.26-2.43,2.73-5.1,4.67-8,5.82-2.9,1.15-6.1,1.73-9.6,1.73ZM2234.17,557.2l-30.98-70.02h12.8l26.37,60.42-8.19,9.6Z"></path>
    </g>
  </g>
</svg>
